<svg xmlns="http://www.w3.org/2000/svg" version="1.1"
     xmlns:xlink="http://www.w3.org/1999/xlink"
 width="3220" height="2120" viewBox="0 0 3220 2120">
  <defs>
    <marker id="arrow" markerWidth="10" markerHeight="10" refX="9" refY="3" orient="auto" markerUnits="strokeWidth">
      <path d="M0,0 L0,6 L9,3 z" fill="#55606c"/>
    </marker>
  </defs>
  <rect x="0" y="0" width="100%" height="100%" fill="#ffffff"/>
  <polyline fill="none" stroke="#55606c" stroke-width="2" marker-end="url(#arrow)" points="156,620 220,620 220,720 320,720"/>
  <polyline fill="none" stroke="#55606c" stroke-width="2" marker-end="url(#arrow)" points="370,720 440,720 440,700 540,700"/>
  <polyline fill="none" stroke="#55606c" stroke-width="2" marker-end="url(#arrow)" points="370,740 460,740 460,860 540,860"/>
  <polyline fill="none" stroke="#55606c" stroke-width="2" marker-end="url(#arrow)" points="640,700 720,700 720,860 820,860"/>
  <polyline fill="none" stroke="#55606c" stroke-width="2" marker-end="url(#arrow)" points="640,860 720,860 720,1160 820,1160"/>
  <polyline fill="none" stroke="#55606c" stroke-width="2" marker-end="url(#arrow)" points="870,860 1040,860"/>
  <polyline fill="none" stroke="#55606c" stroke-width="2" marker-end="url(#arrow)" points="870,880 960,880 960,1020 1040,1020"/>
  <polyline fill="none" stroke="#55606c" stroke-width="2" marker-end="url(#arrow)" points="1140,860 1220,860 1220,920 1300,920"/>
  <polyline fill="none" stroke="#55606c" stroke-width="2" marker-end="url(#arrow)" points="1140,1020 1220,1020 1220,940 1300,940"/>
  <polyline fill="none" stroke="#55606c" stroke-width="2" marker-end="url(#arrow)" points="870,1160 980,1160 980,1200 1040,1200"/>
  <polyline fill="none" stroke="#55606c" stroke-width="2" marker-end="url(#arrow)" points="870,1180 1000,1180 1000,1420 1040,1420"/>
  <polyline fill="none" stroke="#55606c" stroke-width="2" marker-end="url(#arrow)" points="1140,1200 1240,1200 1240,1260 1300,1260"/>
  <polyline fill="none" stroke="#55606c" stroke-width="2" marker-end="url(#arrow)" points="1090,1420 1220,1420 1220,1620 1300,1620"/>
  <polyline fill="none" stroke="#55606c" stroke-width="2" marker-end="url(#arrow)" points="1090,1440 1240,1440 1240,1460 1300,1460"/>
  <polyline fill="none" stroke="#55606c" stroke-width="2" marker-end="url(#arrow)" points="1400,1620 1480,1620 1480,1440 1580,1440"/>
  <polyline fill="none" stroke="#55606c" stroke-width="2" marker-end="url(#arrow)" points="1350,920 1440,920 1440,900 1580,900"/>
  <polyline fill="none" stroke="#55606c" stroke-width="2" marker-end="url(#arrow)" points="1400,1260 1500,1260 1500,1340 1580,1340"/>
  <polyline fill="none" stroke="#55606c" stroke-width="2" marker-end="url(#arrow)" points="1680,900 1760,900 1760,940 1840,940"/>
  <polyline fill="none" stroke="#55606c" stroke-width="2" marker-end="url(#arrow)" points="1680,1340 1760,1340 1760,1400 1840,1400"/>
  <polyline fill="none" stroke="#55606c" stroke-width="2" marker-end="url(#arrow)" points="1400,1460 1580,1460"/>
  <polyline fill="none" stroke="#55606c" stroke-width="2" marker-end="url(#arrow)" points="1890,940 1960,940 1960,1020 2120,1020"/>
  <polyline fill="none" stroke="#55606c" stroke-width="2" marker-end="url(#arrow)" points="1890,960 1980,960 1980,900 2120,900"/>
  <polyline fill="none" stroke="#55606c" stroke-width="2" marker-end="url(#arrow)" points="2220,1020 2300,1020 2300,920 2120,920"/>
  <polyline fill="none" stroke="#55606c" stroke-width="2" marker-end="url(#arrow)" points="1940,1400 2040,1400 2040,1340 2120,1340"/>
  <polyline fill="none" stroke="#55606c" stroke-width="2" marker-end="url(#arrow)" points="1630,1440 1740,1440 1740,1260 1840,1260"/>
  <polyline fill="none" stroke="#55606c" stroke-width="2" marker-end="url(#arrow)" points="2170,900 2240,900 2240,820 2380,820"/>
  <polyline fill="none" stroke="#55606c" stroke-width="2" marker-end="url(#arrow)" points="2220,1340 2300,1340 2300,1140 2380,1140"/>
  <polyline fill="none" stroke="#55606c" stroke-width="2" marker-end="url(#arrow)" points="2760,1160 2800,1160 2800,1760 1800,1760 1800,1280 1840,1280"/>
  <polyline fill="none" stroke="#55606c" stroke-width="2" marker-end="url(#arrow)" points="1890,1260 2020,1260 2020,1180 2120,1180"/>
  <polyline fill="none" stroke="#55606c" stroke-width="2" marker-end="url(#arrow)" points="2220,1180 2320,1180 2320,1060 2380,1060"/>
  <polyline fill="none" stroke="#55606c" stroke-width="2" marker-end="url(#arrow)" points="2480,1060 2560,1060 2560,940 2660,940"/>
  <polyline fill="none" stroke="#55606c" stroke-width="2" marker-end="url(#arrow)" points="3020,820 3080,820 3080,1860 2320,1860 2320,840 2380,840"/>
  <polyline fill="none" stroke="#55606c" stroke-width="2" marker-end="url(#arrow)" points="2430,820 2520,820 2520,740 2660,740"/>
  <polyline fill="none" stroke="#55606c" stroke-width="2" marker-end="url(#arrow)" points="2710,940 2780,940 2780,820 2920,820"/>
  <polyline fill="none" stroke="#55606c" stroke-width="2" marker-end="url(#arrow)" points="2710,960 2780,960 2780,1940 2300,1940 2300,1160 2380,1160"/>
  <polyline fill="none" stroke="#55606c" stroke-width="2" marker-end="url(#arrow)" points="2430,1140 2540,1140 2540,1160 2660,1160"/>
  <circle cx="138" cy="618" r="18" fill="#ffffff" stroke="#203040" stroke-width="3"/>
  <text x="138" y="658" font-family="Segoe UI, Arial, sans-serif" font-size="12" text-anchor="middle" fill="#203040">Default_init</text>
  <polygon points="345,700 370,725 345,750 320,725" fill="#fff7e0" stroke="#8a6d1f" stroke-width="2"/>
  <text x="345" y="772" font-family="Segoe UI, Arial, sans-serif" font-size="12" text-anchor="middle" fill="#203040">PAR</text>
  <rect x="540" y="660" width="100" height="80" rx="12" ry="12" fill="#f6fbff" stroke="#2b5876" stroke-width="2"/>
  <text x="590" y="762" font-family="Segoe UI, Arial, sans-serif" font-size="12" text-anchor="middle" fill="#203040">Check Customer</text>
  <rect x="540" y="820" width="100" height="80" rx="12" ry="12" fill="#f6fbff" stroke="#2b5876" stroke-width="2"/>
  <text x="590" y="922" font-family="Segoe UI, Arial, sans-serif" font-size="12" text-anchor="middle" fill="#203040">Sending Confirmation to Customer</text>
  <polygon points="845,840 870,865 845,890 820,865" fill="#fff7e0" stroke="#8a6d1f" stroke-width="2"/>
  <text x="845" y="912" font-family="Segoe UI, Arial, sans-serif" font-size="12" text-anchor="middle" fill="#203040">G0</text>
  <rect x="1040" y="820" width="100" height="80" rx="12" ry="12" fill="#f6fbff" stroke="#2b5876" stroke-width="2"/>
  <text x="1090" y="922" font-family="Segoe UI, Arial, sans-serif" font-size="12" text-anchor="middle" fill="#203040">Check Payment History</text>
  <rect x="1040" y="980" width="100" height="80" rx="12" ry="12" fill="#f6fbff" stroke="#2b5876" stroke-width="2"/>
  <text x="1090" y="1082" font-family="Segoe UI, Arial, sans-serif" font-size="12" text-anchor="middle" fill="#203040">Check Customer Type</text>
  <polygon points="845,1140 870,1165 845,1190 820,1165" fill="#fff7e0" stroke="#8a6d1f" stroke-width="2"/>
  <text x="845" y="1212" font-family="Segoe UI, Arial, sans-serif" font-size="12" text-anchor="middle" fill="#203040">PAR</text>
  <rect x="1040" y="1160" width="100" height="80" rx="12" ry="12" fill="#f6fbff" stroke="#2b5876" stroke-width="2"/>
  <text x="1090" y="1262" font-family="Segoe UI, Arial, sans-serif" font-size="12" text-anchor="middle" fill="#203040">Getting ready for delivery</text>
  <polygon points="1065,1400 1090,1425 1065,1450 1040,1425" fill="#fff7e0" stroke="#8a6d1f" stroke-width="2"/>
  <text x="1065" y="1472" font-family="Segoe UI, Arial, sans-serif" font-size="12" text-anchor="middle" fill="#203040">G1</text>
  <rect x="1300" y="1580" width="100" height="80" rx="12" ry="12" fill="#f6fbff" stroke="#2b5876" stroke-width="2"/>
  <text x="1350" y="1682" font-family="Segoe UI, Arial, sans-serif" font-size="12" text-anchor="middle" fill="#203040">Create New Customer</text>
  <polygon points="1325,900 1350,925 1325,950 1300,925" fill="#fff7e0" stroke="#8a6d1f" stroke-width="2"/>
  <text x="1325" y="972" font-family="Segoe UI, Arial, sans-serif" font-size="12" text-anchor="middle" fill="#203040">XORCLOSE14</text>
  <rect x="1300" y="1220" width="100" height="80" rx="12" ry="12" fill="#f6fbff" stroke="#2b5876" stroke-width="2"/>
  <text x="1350" y="1322" font-family="Segoe UI, Arial, sans-serif" font-size="12" text-anchor="middle" fill="#203040">Pack the Goods</text>
  <rect x="1580" y="860" width="100" height="80" rx="12" ry="12" fill="#f6fbff" stroke="#2b5876" stroke-width="2"/>
  <text x="1630" y="962" font-family="Segoe UI, Arial, sans-serif" font-size="12" text-anchor="middle" fill="#203040">Check Availability</text>
  <rect x="1580" y="1300" width="100" height="80" rx="12" ry="12" fill="#f6fbff" stroke="#2b5876" stroke-width="2"/>
  <text x="1630" y="1402" font-family="Segoe UI, Arial, sans-serif" font-size="12" text-anchor="middle" fill="#203040">Deliver the Goods</text>
  <rect x="1300" y="1420" width="100" height="80" rx="12" ry="12" fill="#f6fbff" stroke="#2b5876" stroke-width="2"/>
  <text x="1350" y="1522" font-family="Segoe UI, Arial, sans-serif" font-size="12" text-anchor="middle" fill="#203040">Declining Message</text>
  <polygon points="1865,920 1890,945 1865,970 1840,945" fill="#fff7e0" stroke="#8a6d1f" stroke-width="2"/>
  <text x="1865" y="992" font-family="Segoe UI, Arial, sans-serif" font-size="12" text-anchor="middle" fill="#203040">G2</text>
  <rect x="2120" y="980" width="100" height="80" rx="12" ry="12" fill="#f6fbff" stroke="#2b5876" stroke-width="2"/>
  <text x="2170" y="1082" font-family="Segoe UI, Arial, sans-serif" font-size="12" text-anchor="middle" fill="#203040">Producing Missing Goods</text>
  <rect x="1840" y="1360" width="100" height="80" rx="12" ry="12" fill="#f6fbff" stroke="#2b5876" stroke-width="2"/>
  <text x="1890" y="1462" font-family="Segoe UI, Arial, sans-serif" font-size="12" text-anchor="middle" fill="#203040">Preparing Invoice</text>
  <polygon points="1605,1420 1630,1445 1605,1470 1580,1445" fill="#fff7e0" stroke="#8a6d1f" stroke-width="2"/>
  <text x="1605" y="1492" font-family="Segoe UI, Arial, sans-serif" font-size="12" text-anchor="middle" fill="#203040">XORCLOSE24</text>
  <polygon points="2145,880 2170,905 2145,930 2120,905" fill="#fff7e0" stroke="#8a6d1f" stroke-width="2"/>
  <text x="2145" y="952" font-family="Segoe UI, Arial, sans-serif" font-size="12" text-anchor="middle" fill="#203040">XORCLOSE25</text>
  <rect x="2120" y="1300" width="100" height="80" rx="12" ry="12" fill="#f6fbff" stroke="#2b5876" stroke-width="2"/>
  <text x="2170" y="1402" font-family="Segoe UI, Arial, sans-serif" font-size="12" text-anchor="middle" fill="#203040">Send the Invoice invoice to c...</text>
  <rect x="2660" y="1120" width="100" height="80" rx="12" ry="12" fill="#f6fbff" stroke="#2b5876" stroke-width="2"/>
  <text x="2710" y="1222" font-family="Segoe UI, Arial, sans-serif" font-size="12" text-anchor="middle" fill="#203040">Check for Payment</text>
  <polygon points="1865,1240 1890,1265 1865,1290 1840,1265" fill="#fff7e0" stroke="#8a6d1f" stroke-width="2"/>
  <text x="1865" y="1312" font-family="Segoe UI, Arial, sans-serif" font-size="12" text-anchor="middle" fill="#203040">PARCLOSE29</text>
  <rect x="2120" y="1140" width="100" height="80" rx="12" ry="12" fill="#f6fbff" stroke="#2b5876" stroke-width="2"/>
  <text x="2170" y="1242" font-family="Segoe UI, Arial, sans-serif" font-size="12" text-anchor="middle" fill="#203040">Closing Order</text>
  <rect x="2380" y="1020" width="100" height="80" rx="12" ry="12" fill="#f6fbff" stroke="#2b5876" stroke-width="2"/>
  <text x="2430" y="1122" font-family="Segoe UI, Arial, sans-serif" font-size="12" text-anchor="middle" fill="#203040">Checking the reminders</text>
  <rect x="2920" y="780" width="100" height="80" rx="12" ry="12" fill="#f6fbff" stroke="#2b5876" stroke-width="2"/>
  <text x="2970" y="882" font-family="Segoe UI, Arial, sans-serif" font-size="12" text-anchor="middle" fill="#203040">Dunning Process</text>
  <polygon points="2405,800 2430,825 2405,850 2380,825" fill="#fff7e0" stroke="#8a6d1f" stroke-width="2"/>
  <text x="2405" y="872" font-family="Segoe UI, Arial, sans-serif" font-size="12" text-anchor="middle" fill="#203040">PARCLOSE34</text>
  <circle cx="2678" cy="738" r="18" fill="#ffffff" stroke="#203040" stroke-width="3"/>
  <text x="2678" y="778" font-family="Segoe UI, Arial, sans-serif" font-size="12" text-anchor="middle" fill="#203040">END_EVENT</text>
  <polygon points="2685,920 2710,945 2685,970 2660,945" fill="#fff7e0" stroke="#8a6d1f" stroke-width="2"/>
  <text x="2685" y="992" font-family="Segoe UI, Arial, sans-serif" font-size="12" text-anchor="middle" fill="#203040">XOR_JMPAA_Checking the reminders</text>
  <polygon points="2405,1120 2430,1145 2405,1170 2380,1145" fill="#fff7e0" stroke="#8a6d1f" stroke-width="2"/>
  <text x="2405" y="1192" font-family="Segoe UI, Arial, sans-serif" font-size="12" text-anchor="middle" fill="#203040">XOR_JMPBB_Check for Payment</text>
</svg>
