<svg xmlns="http://www.w3.org/2000/svg" version="1.1"
     xmlns:xlink="http://www.w3.org/1999/xlink"
 width="4300" height="1700" viewBox="0 0 4300 1700">
  <defs>
    <marker id="arrow" markerWidth="10" markerHeight="10" refX="9" refY="3" orient="auto" markerUnits="strokeWidth">
      <path d="M0,0 L0,6 L9,3 z" fill="#55606c"/>
    </marker>
  </defs>
  <rect x="0" y="0" width="100%" height="100%" fill="#ffffff"/>
  <polyline fill="none" stroke="#55606c" stroke-width="2" marker-end="url(#arrow)" points="156,160 220,160 220,180 320,180"/>
  <polyline fill="none" stroke="#55606c" stroke-width="2" marker-end="url(#arrow)" points="420,180 500,180 500,220 600,220"/>
  <polyline fill="none" stroke="#55606c" stroke-width="2" marker-end="url(#arrow)" points="700,220 780,220 780,320 860,320"/>
  <polyline fill="none" stroke="#55606c" stroke-width="2" marker-end="url(#arrow)" points="960,320 1040,320 1040,500 1140,500"/>
  <polyline fill="none" stroke="#55606c" stroke-width="2" marker-end="url(#arrow)" points="1190,500 1260,500 1260,460 1360,460"/>
  <polyline fill="none" stroke="#55606c" stroke-width="2" marker-end="url(#arrow)" points="1190,520 1280,520 1280,800 1360,800"/>
  <polyline fill="none" stroke="#55606c" stroke-width="2" marker-end="url(#arrow)" points="1460,460 1540,460 1540,420 1620,420"/>
  <polyline fill="none" stroke="#55606c" stroke-width="2" marker-end="url(#arrow)" points="1410,800 1500,800 1500,860 1620,860"/>
  <polyline fill="none" stroke="#55606c" stroke-width="2" marker-end="url(#arrow)" points="1410,820 1520,820 1520,1020 1620,1020"/>
  <polyline fill="none" stroke="#55606c" stroke-width="2" marker-end="url(#arrow)" points="1720,860 1800,860 1800,960 1900,960"/>
  <polyline fill="none" stroke="#55606c" stroke-width="2" marker-end="url(#arrow)" points="1720,420 1800,420 1800,440 1900,440"/>
  <polyline fill="none" stroke="#55606c" stroke-width="2" marker-end="url(#arrow)" points="2000,440 2080,440 2080,480 2160,480"/>
  <polyline fill="none" stroke="#55606c" stroke-width="2" marker-end="url(#arrow)" points="1720,1020 1820,1020 1820,980 1900,980"/>
  <polyline fill="none" stroke="#55606c" stroke-width="2" marker-end="url(#arrow)" points="2260,480 2340,480 2340,680 2440,680"/>
  <polyline fill="none" stroke="#55606c" stroke-width="2" marker-end="url(#arrow)" points="1950,960 2040,960 2040,1060 2160,1060"/>
  <polyline fill="none" stroke="#55606c" stroke-width="2" marker-end="url(#arrow)" points="2800,680 2880,680 2880,780 2980,780"/>
  <polyline fill="none" stroke="#55606c" stroke-width="2" marker-end="url(#arrow)" points="2210,1060 2300,1060 2300,1040 2440,1040"/>
  <polyline fill="none" stroke="#55606c" stroke-width="2" marker-end="url(#arrow)" points="2210,1080 2320,1080 2320,1200 2440,1200"/>
  <polyline fill="none" stroke="#55606c" stroke-width="2" marker-end="url(#arrow)" points="2540,1200 2620,1200 2620,1100 2700,1100"/>
  <polyline fill="none" stroke="#55606c" stroke-width="2" marker-end="url(#arrow)" points="3030,780 3100,780 3100,920 3240,920"/>
  <polyline fill="none" stroke="#55606c" stroke-width="2" marker-end="url(#arrow)" points="3030,800 3120,800 3120,760 3240,760"/>
  <polyline fill="none" stroke="#55606c" stroke-width="2" marker-end="url(#arrow)" points="3340,920 3420,920 3420,940 3520,940"/>
  <polyline fill="none" stroke="#55606c" stroke-width="2" marker-end="url(#arrow)" points="2540,1040 2620,1040 2620,1120 2700,1120"/>
  <polyline fill="none" stroke="#55606c" stroke-width="2" marker-end="url(#arrow)" points="3340,760 3420,760 3420,880 3520,880"/>
  <polyline fill="none" stroke="#55606c" stroke-width="2" marker-end="url(#arrow)" points="3830,1000 3900,1000 3900,1020 4000,1020"/>
  <polyline fill="none" stroke="#55606c" stroke-width="2" marker-end="url(#arrow)" points="3830,1020 3920,1020 3920,980 4000,980"/>
  <polyline fill="none" stroke="#55606c" stroke-width="2" marker-end="url(#arrow)" points="4100,1020 4180,1020 4180,1000 4000,1000"/>
  <polyline fill="none" stroke="#55606c" stroke-width="2" marker-end="url(#arrow)" points="2750,1100 2840,1100 2840,1060 2980,1060"/>
  <polyline fill="none" stroke="#55606c" stroke-width="2" marker-end="url(#arrow)" points="4050,980 4100,980 4100,1340 3480,1340 3480,960 3520,960"/>
  <polyline fill="none" stroke="#55606c" stroke-width="2" marker-end="url(#arrow)" points="3080,1060 3180,1060 3180,1100 3240,1100"/>
  <polyline fill="none" stroke="#55606c" stroke-width="2" marker-end="url(#arrow)" points="3570,940 3640,940 3640,960 3780,960"/>
  <polyline fill="none" stroke="#55606c" stroke-width="2" marker-end="url(#arrow)" points="3290,1100 3400,1100 3400,1180 3520,1180"/>
  <polyline fill="none" stroke="#55606c" stroke-width="2" marker-end="url(#arrow)" points="3290,1120 3420,1120 3420,1060 3520,1060"/>
  <polyline fill="none" stroke="#55606c" stroke-width="2" marker-end="url(#arrow)" points="3620,1180 3700,1180 3700,1080 3520,1080"/>
  <polyline fill="none" stroke="#55606c" stroke-width="2" marker-end="url(#arrow)" points="3570,1060 3660,1060 3660,980 3780,980"/>
  <polyline fill="none" stroke="#55606c" stroke-width="2" marker-end="url(#arrow)" points="3830,960 3940,960 3940,900 4000,900"/>
  <polyline fill="none" stroke="#55606c" stroke-width="2" marker-end="url(#arrow)" points="3570,880 3680,880 3680,1000 3780,1000"/>
  <polyline fill="none" stroke="#55606c" stroke-width="2" marker-end="url(#arrow)" points="3570,900 3620,900 3620,1440 2380,1440 2380,700 2440,700"/>
  <polyline fill="none" stroke="#55606c" stroke-width="2" marker-end="url(#arrow)" points="2490,680 2700,680"/>
  <circle cx="138" cy="158" r="18" fill="#ffffff" stroke="#203040" stroke-width="3"/>
  <text x="138" y="198" font-family="Segoe UI, Arial, sans-serif" font-size="12" text-anchor="middle" fill="#203040">Default_init</text>
  <rect x="320" y="140" width="100" height="80" rx="12" ry="12" fill="#f6fbff" stroke="#2b5876" stroke-width="2"/>
  <text x="370" y="242" font-family="Segoe UI, Arial, sans-serif" font-size="12" text-anchor="middle" fill="#203040">Check Customer</text>
  <rect x="600" y="180" width="100" height="80" rx="12" ry="12" fill="#f6fbff" stroke="#2b5876" stroke-width="2"/>
  <text x="650" y="282" font-family="Segoe UI, Arial, sans-serif" font-size="12" text-anchor="middle" fill="#203040">Sending Confirmation to Customer</text>
  <rect x="860" y="280" width="100" height="80" rx="12" ry="12" fill="#f6fbff" stroke="#2b5876" stroke-width="2"/>
  <text x="910" y="382" font-family="Segoe UI, Arial, sans-serif" font-size="12" text-anchor="middle" fill="#203040">Getting ready for delivery</text>
  <polygon points="1165,480 1190,505 1165,530 1140,505" fill="#fff7e0" stroke="#8a6d1f" stroke-width="2"/>
  <text x="1165" y="552" font-family="Segoe UI, Arial, sans-serif" font-size="12" text-anchor="middle" fill="#203040">PAR</text>
  <rect x="1360" y="420" width="100" height="80" rx="12" ry="12" fill="#f6fbff" stroke="#2b5876" stroke-width="2"/>
  <text x="1410" y="522" font-family="Segoe UI, Arial, sans-serif" font-size="12" text-anchor="middle" fill="#203040">Pack the Goods</text>
  <polygon points="1385,780 1410,805 1385,830 1360,805" fill="#fff7e0" stroke="#8a6d1f" stroke-width="2"/>
  <text x="1385" y="852" font-family="Segoe UI, Arial, sans-serif" font-size="12" text-anchor="middle" fill="#203040">G2</text>
  <rect x="1620" y="820" width="100" height="80" rx="12" ry="12" fill="#f6fbff" stroke="#2b5876" stroke-width="2"/>
  <text x="1670" y="922" font-family="Segoe UI, Arial, sans-serif" font-size="12" text-anchor="middle" fill="#203040">Check Payment History</text>
  <rect x="1620" y="380" width="100" height="80" rx="12" ry="12" fill="#f6fbff" stroke="#2b5876" stroke-width="2"/>
  <text x="1670" y="482" font-family="Segoe UI, Arial, sans-serif" font-size="12" text-anchor="middle" fill="#203040">Deliver the Goods</text>
  <rect x="1900" y="400" width="100" height="80" rx="12" ry="12" fill="#f6fbff" stroke="#2b5876" stroke-width="2"/>
  <text x="1950" y="502" font-family="Segoe UI, Arial, sans-serif" font-size="12" text-anchor="middle" fill="#203040">Preparing Invoice</text>
  <rect x="1620" y="980" width="100" height="80" rx="12" ry="12" fill="#f6fbff" stroke="#2b5876" stroke-width="2"/>
  <text x="1670" y="1082" font-family="Segoe UI, Arial, sans-serif" font-size="12" text-anchor="middle" fill="#203040">Check Customer Type</text>
  <rect x="2160" y="440" width="100" height="80" rx="12" ry="12" fill="#f6fbff" stroke="#2b5876" stroke-width="2"/>
  <text x="2210" y="542" font-family="Segoe UI, Arial, sans-serif" font-size="12" text-anchor="middle" fill="#203040">Send the Invoice invoice to c...</text>
  <polygon points="1925,940 1950,965 1925,990 1900,965" fill="#fff7e0" stroke="#8a6d1f" stroke-width="2"/>
  <text x="1925" y="1012" font-family="Segoe UI, Arial, sans-serif" font-size="12" text-anchor="middle" fill="#203040">XORCLOSE12</text>
  <rect x="2700" y="640" width="100" height="80" rx="12" ry="12" fill="#f6fbff" stroke="#2b5876" stroke-width="2"/>
  <text x="2750" y="742" font-family="Segoe UI, Arial, sans-serif" font-size="12" text-anchor="middle" fill="#203040">Check for Payment</text>
  <polygon points="2185,1040 2210,1065 2185,1090 2160,1065" fill="#fff7e0" stroke="#8a6d1f" stroke-width="2"/>
  <text x="2185" y="1112" font-family="Segoe UI, Arial, sans-serif" font-size="12" text-anchor="middle" fill="#203040">G3</text>
  <rect x="2440" y="1160" width="100" height="80" rx="12" ry="12" fill="#f6fbff" stroke="#2b5876" stroke-width="2"/>
  <text x="2490" y="1262" font-family="Segoe UI, Arial, sans-serif" font-size="12" text-anchor="middle" fill="#203040">Create New Customer</text>
  <polygon points="3005,760 3030,785 3005,810 2980,785" fill="#fff7e0" stroke="#8a6d1f" stroke-width="2"/>
  <text x="3005" y="832" font-family="Segoe UI, Arial, sans-serif" font-size="12" text-anchor="middle" fill="#203040">G4</text>
  <rect x="3240" y="880" width="100" height="80" rx="12" ry="12" fill="#f6fbff" stroke="#2b5876" stroke-width="2"/>
  <text x="3290" y="982" font-family="Segoe UI, Arial, sans-serif" font-size="12" text-anchor="middle" fill="#203040">Closing Order</text>
  <rect x="2440" y="1000" width="100" height="80" rx="12" ry="12" fill="#f6fbff" stroke="#2b5876" stroke-width="2"/>
  <text x="2490" y="1102" font-family="Segoe UI, Arial, sans-serif" font-size="12" text-anchor="middle" fill="#203040">Declining Message</text>
  <rect x="3240" y="720" width="100" height="80" rx="12" ry="12" fill="#f6fbff" stroke="#2b5876" stroke-width="2"/>
  <text x="3290" y="822" font-family="Segoe UI, Arial, sans-serif" font-size="12" text-anchor="middle" fill="#203040">Checking the reminders</text>
  <polygon points="3805,980 3830,1005 3805,1030 3780,1005" fill="#fff7e0" stroke="#8a6d1f" stroke-width="2"/>
  <text x="3805" y="1052" font-family="Segoe UI, Arial, sans-serif" font-size="12" text-anchor="middle" fill="#203040">G6</text>
  <rect x="4000" y="980" width="100" height="80" rx="12" ry="12" fill="#f6fbff" stroke="#2b5876" stroke-width="2"/>
  <text x="4050" y="1082" font-family="Segoe UI, Arial, sans-serif" font-size="12" text-anchor="middle" fill="#203040">Dunning Process</text>
  <polygon points="2725,1080 2750,1105 2725,1130 2700,1105" fill="#fff7e0" stroke="#8a6d1f" stroke-width="2"/>
  <text x="2725" y="1152" font-family="Segoe UI, Arial, sans-serif" font-size="12" text-anchor="middle" fill="#203040">XORCLOSE24</text>
  <polygon points="4025,960 4050,985 4025,1010 4000,985" fill="#fff7e0" stroke="#8a6d1f" stroke-width="2"/>
  <text x="4025" y="1032" font-family="Segoe UI, Arial, sans-serif" font-size="12" text-anchor="middle" fill="#203040">XORCLOSE25</text>
  <rect x="2980" y="1020" width="100" height="80" rx="12" ry="12" fill="#f6fbff" stroke="#2b5876" stroke-width="2"/>
  <text x="3030" y="1122" font-family="Segoe UI, Arial, sans-serif" font-size="12" text-anchor="middle" fill="#203040">Check Availability</text>
  <polygon points="3545,920 3570,945 3545,970 3520,945" fill="#fff7e0" stroke="#8a6d1f" stroke-width="2"/>
  <text x="3545" y="992" font-family="Segoe UI, Arial, sans-serif" font-size="12" text-anchor="middle" fill="#203040">XORCLOSE27</text>
  <polygon points="3265,1080 3290,1105 3265,1130 3240,1105" fill="#fff7e0" stroke="#8a6d1f" stroke-width="2"/>
  <text x="3265" y="1152" font-family="Segoe UI, Arial, sans-serif" font-size="12" text-anchor="middle" fill="#203040">G7</text>
  <rect x="3520" y="1140" width="100" height="80" rx="12" ry="12" fill="#f6fbff" stroke="#2b5876" stroke-width="2"/>
  <text x="3570" y="1242" font-family="Segoe UI, Arial, sans-serif" font-size="12" text-anchor="middle" fill="#203040">Producing Missing Goods</text>
  <polygon points="3545,1040 3570,1065 3545,1090 3520,1065" fill="#fff7e0" stroke="#8a6d1f" stroke-width="2"/>
  <text x="3545" y="1112" font-family="Segoe UI, Arial, sans-serif" font-size="12" text-anchor="middle" fill="#203040">XORCLOSE31</text>
  <polygon points="3805,940 3830,965 3805,990 3780,965" fill="#fff7e0" stroke="#8a6d1f" stroke-width="2"/>
  <text x="3805" y="1012" font-family="Segoe UI, Arial, sans-serif" font-size="12" text-anchor="middle" fill="#203040">PARCLOSE32</text>
  <circle cx="4018" cy="898" r="18" fill="#ffffff" stroke="#203040" stroke-width="3"/>
  <text x="4018" y="938" font-family="Segoe UI, Arial, sans-serif" font-size="12" text-anchor="middle" fill="#203040">END_EVENT</text>
  <polygon points="3545,860 3570,885 3545,910 3520,885" fill="#fff7e0" stroke="#8a6d1f" stroke-width="2"/>
  <text x="3545" y="932" font-family="Segoe UI, Arial, sans-serif" font-size="12" text-anchor="middle" fill="#203040">XOR_JMPAA_Checking the reminders</text>
  <polygon points="2465,660 2490,685 2465,710 2440,685" fill="#fff7e0" stroke="#8a6d1f" stroke-width="2"/>
  <text x="2465" y="732" font-family="Segoe UI, Arial, sans-serif" font-size="12" text-anchor="middle" fill="#203040">XOR_JMPBB_Check for Payment</text>
</svg>
