<svg xmlns="http://www.w3.org/2000/svg" version="1.1"
     xmlns:xlink="http://www.w3.org/1999/xlink"
 width="6120" height="1300" viewBox="0 0 6120 1300">
  <defs>
    <marker id="arrow" markerWidth="10" markerHeight="10" refX="9" refY="3" orient="auto" markerUnits="strokeWidth">
      <path d="M0,0 L0,6 L9,3 z" fill="#55606c"/>
    </marker>
  </defs>
  <rect x="0" y="0" width="100%" height="100%" fill="#ffffff"/>
  <polyline fill="none" stroke="#55606c" stroke-width="2" marker-end="url(#arrow)" points="156,360 220,360 220,400 320,400"/>
  <polyline fill="none" stroke="#55606c" stroke-width="2" marker-end="url(#arrow)" points="420,400 500,400 500,540 600,540"/>
  <polyline fill="none" stroke="#55606c" stroke-width="2" marker-end="url(#arrow)" points="650,540 820,540"/>
  <polyline fill="none" stroke="#55606c" stroke-width="2" marker-end="url(#arrow)" points="650,560 740,560 740,700 820,700"/>
  <polyline fill="none" stroke="#55606c" stroke-width="2" marker-end="url(#arrow)" points="920,540 1000,540 1000,620 1080,620"/>
  <polyline fill="none" stroke="#55606c" stroke-width="2" marker-end="url(#arrow)" points="920,700 1000,700 1000,640 1080,640"/>
  <polyline fill="none" stroke="#55606c" stroke-width="2" marker-end="url(#arrow)" points="1130,620 1200,620 1200,680 1300,680"/>
  <polyline fill="none" stroke="#55606c" stroke-width="2" marker-end="url(#arrow)" points="1350,680 1420,680 1420,800 1520,800"/>
  <polyline fill="none" stroke="#55606c" stroke-width="2" marker-end="url(#arrow)" points="1350,700 1440,700 1440,640 1520,640"/>
  <polyline fill="none" stroke="#55606c" stroke-width="2" marker-end="url(#arrow)" points="1620,800 1700,800 1700,680 1800,680"/>
  <polyline fill="none" stroke="#55606c" stroke-width="2" marker-end="url(#arrow)" points="1620,640 1700,640 1700,700 1800,700"/>
  <polyline fill="none" stroke="#55606c" stroke-width="2" marker-end="url(#arrow)" points="1850,680 1920,680 1920,620 2020,620"/>
  <polyline fill="none" stroke="#55606c" stroke-width="2" marker-end="url(#arrow)" points="2120,620 2280,620"/>
  <polyline fill="none" stroke="#55606c" stroke-width="2" marker-end="url(#arrow)" points="2330,620 2400,620 2400,680 2500,680"/>
  <polyline fill="none" stroke="#55606c" stroke-width="2" marker-end="url(#arrow)" points="2330,640 2420,640 2420,580 2500,580"/>
  <polyline fill="none" stroke="#55606c" stroke-width="2" marker-end="url(#arrow)" points="2600,680 2680,680 2680,600 2500,600"/>
  <polyline fill="none" stroke="#55606c" stroke-width="2" marker-end="url(#arrow)" points="2550,580 2620,580 2620,460 2780,460"/>
  <polyline fill="none" stroke="#55606c" stroke-width="2" marker-end="url(#arrow)" points="2880,460 2960,460 2960,400 3040,400"/>
  <polyline fill="none" stroke="#55606c" stroke-width="2" marker-end="url(#arrow)" points="3140,400 3220,400 3220,320 3320,320"/>
  <polyline fill="none" stroke="#55606c" stroke-width="2" marker-end="url(#arrow)" points="3420,320 3500,320 3500,340 3580,340"/>
  <polyline fill="none" stroke="#55606c" stroke-width="2" marker-end="url(#arrow)" points="3680,340 3760,340 3760,300 3860,300"/>
  <polyline fill="none" stroke="#55606c" stroke-width="2" marker-end="url(#arrow)" points="3960,300 4040,300 4040,340 4120,340"/>
  <polyline fill="none" stroke="#55606c" stroke-width="2" marker-end="url(#arrow)" points="4220,340 4300,340 4300,480 4400,480"/>
  <polyline fill="none" stroke="#55606c" stroke-width="2" marker-end="url(#arrow)" points="4720,480 4800,480 4800,560 4880,560"/>
  <polyline fill="none" stroke="#55606c" stroke-width="2" marker-end="url(#arrow)" points="4930,560 5000,560 5000,700 5100,700"/>
  <polyline fill="none" stroke="#55606c" stroke-width="2" marker-end="url(#arrow)" points="4930,580 5020,580 5020,540 5100,540"/>
  <polyline fill="none" stroke="#55606c" stroke-width="2" marker-end="url(#arrow)" points="5200,700 5280,700 5280,660 5380,660"/>
  <polyline fill="none" stroke="#55606c" stroke-width="2" marker-end="url(#arrow)" points="5200,540 5280,540 5280,620 5380,620"/>
  <polyline fill="none" stroke="#55606c" stroke-width="2" marker-end="url(#arrow)" points="5650,700 5820,700"/>
  <polyline fill="none" stroke="#55606c" stroke-width="2" marker-end="url(#arrow)" points="5650,720 5740,720 5740,680 5820,680"/>
  <polyline fill="none" stroke="#55606c" stroke-width="2" marker-end="url(#arrow)" points="5920,700 5820,700"/>
  <polyline fill="none" stroke="#55606c" stroke-width="2" marker-end="url(#arrow)" points="5870,680 5920,680 5920,940 5340,940 5340,680 5380,680"/>
  <polyline fill="none" stroke="#55606c" stroke-width="2" marker-end="url(#arrow)" points="5430,660 5500,660 5500,640 5600,640"/>
  <polyline fill="none" stroke="#55606c" stroke-width="2" marker-end="url(#arrow)" points="5430,620 5520,620 5520,700 5600,700"/>
  <polyline fill="none" stroke="#55606c" stroke-width="2" marker-end="url(#arrow)" points="5430,640 5480,640 5480,1040 4340,1040 4340,500 4400,500"/>
  <polyline fill="none" stroke="#55606c" stroke-width="2" marker-end="url(#arrow)" points="4450,480 4620,480"/>
  <circle cx="138" cy="358" r="18" fill="#ffffff" stroke="#203040" stroke-width="3"/>
  <text x="138" y="398" font-family="Segoe UI, Arial, sans-serif" font-size="12" text-anchor="middle" fill="#203040">Default_init</text>
  <rect x="320" y="360" width="100" height="80" rx="12" ry="12" fill="#f6fbff" stroke="#2b5876" stroke-width="2"/>
  <text x="370" y="462" font-family="Segoe UI, Arial, sans-serif" font-size="12" text-anchor="middle" fill="#203040">Check Customer</text>
  <polygon points="625,520 650,545 625,570 600,545" fill="#fff7e0" stroke="#8a6d1f" stroke-width="2"/>
  <text x="625" y="592" font-family="Segoe UI, Arial, sans-serif" font-size="12" text-anchor="middle" fill="#203040">G0</text>
  <rect x="820" y="500" width="100" height="80" rx="12" ry="12" fill="#f6fbff" stroke="#2b5876" stroke-width="2"/>
  <text x="870" y="602" font-family="Segoe UI, Arial, sans-serif" font-size="12" text-anchor="middle" fill="#203040">Check Payment History</text>
  <rect x="820" y="660" width="100" height="80" rx="12" ry="12" fill="#f6fbff" stroke="#2b5876" stroke-width="2"/>
  <text x="870" y="762" font-family="Segoe UI, Arial, sans-serif" font-size="12" text-anchor="middle" fill="#203040">Check Customer Type</text>
  <polygon points="1105,600 1130,625 1105,650 1080,625" fill="#fff7e0" stroke="#8a6d1f" stroke-width="2"/>
  <text x="1105" y="672" font-family="Segoe UI, Arial, sans-serif" font-size="12" text-anchor="middle" fill="#203040">XORCLOSE5</text>
  <polygon points="1325,660 1350,685 1325,710 1300,685" fill="#fff7e0" stroke="#8a6d1f" stroke-width="2"/>
  <text x="1325" y="732" font-family="Segoe UI, Arial, sans-serif" font-size="12" text-anchor="middle" fill="#203040">G1</text>
  <rect x="1520" y="760" width="100" height="80" rx="12" ry="12" fill="#f6fbff" stroke="#2b5876" stroke-width="2"/>
  <text x="1570" y="862" font-family="Segoe UI, Arial, sans-serif" font-size="12" text-anchor="middle" fill="#203040">Create New Customer</text>
  <rect x="1520" y="600" width="100" height="80" rx="12" ry="12" fill="#f6fbff" stroke="#2b5876" stroke-width="2"/>
  <text x="1570" y="702" font-family="Segoe UI, Arial, sans-serif" font-size="12" text-anchor="middle" fill="#203040">Declining Message</text>
  <polygon points="1825,660 1850,685 1825,710 1800,685" fill="#fff7e0" stroke="#8a6d1f" stroke-width="2"/>
  <text x="1825" y="732" font-family="Segoe UI, Arial, sans-serif" font-size="12" text-anchor="middle" fill="#203040">XORCLOSE10</text>
  <rect x="2020" y="580" width="100" height="80" rx="12" ry="12" fill="#f6fbff" stroke="#2b5876" stroke-width="2"/>
  <text x="2070" y="682" font-family="Segoe UI, Arial, sans-serif" font-size="12" text-anchor="middle" fill="#203040">Check Availability</text>
  <polygon points="2305,600 2330,625 2305,650 2280,625" fill="#fff7e0" stroke="#8a6d1f" stroke-width="2"/>
  <text x="2305" y="672" font-family="Segoe UI, Arial, sans-serif" font-size="12" text-anchor="middle" fill="#203040">G2</text>
  <rect x="2500" y="640" width="100" height="80" rx="12" ry="12" fill="#f6fbff" stroke="#2b5876" stroke-width="2"/>
  <text x="2550" y="742" font-family="Segoe UI, Arial, sans-serif" font-size="12" text-anchor="middle" fill="#203040">Producing Missing Goods</text>
  <polygon points="2525,560 2550,585 2525,610 2500,585" fill="#fff7e0" stroke="#8a6d1f" stroke-width="2"/>
  <text x="2525" y="632" font-family="Segoe UI, Arial, sans-serif" font-size="12" text-anchor="middle" fill="#203040">XORCLOSE15</text>
  <rect x="2780" y="420" width="100" height="80" rx="12" ry="12" fill="#f6fbff" stroke="#2b5876" stroke-width="2"/>
  <text x="2830" y="522" font-family="Segoe UI, Arial, sans-serif" font-size="12" text-anchor="middle" fill="#203040">Sending Confirmation to Customer</text>
  <rect x="3040" y="360" width="100" height="80" rx="12" ry="12" fill="#f6fbff" stroke="#2b5876" stroke-width="2"/>
  <text x="3090" y="462" font-family="Segoe UI, Arial, sans-serif" font-size="12" text-anchor="middle" fill="#203040">Getting ready for delivery</text>
  <rect x="3320" y="280" width="100" height="80" rx="12" ry="12" fill="#f6fbff" stroke="#2b5876" stroke-width="2"/>
  <text x="3370" y="382" font-family="Segoe UI, Arial, sans-serif" font-size="12" text-anchor="middle" fill="#203040">Pack the Goods</text>
  <rect x="3580" y="300" width="100" height="80" rx="12" ry="12" fill="#f6fbff" stroke="#2b5876" stroke-width="2"/>
  <text x="3630" y="402" font-family="Segoe UI, Arial, sans-serif" font-size="12" text-anchor="middle" fill="#203040">Deliver the Goods</text>
  <rect x="3860" y="260" width="100" height="80" rx="12" ry="12" fill="#f6fbff" stroke="#2b5876" stroke-width="2"/>
  <text x="3910" y="362" font-family="Segoe UI, Arial, sans-serif" font-size="12" text-anchor="middle" fill="#203040">Preparing Invoice</text>
  <rect x="4120" y="300" width="100" height="80" rx="12" ry="12" fill="#f6fbff" stroke="#2b5876" stroke-width="2"/>
  <text x="4170" y="402" font-family="Segoe UI, Arial, sans-serif" font-size="12" text-anchor="middle" fill="#203040">Send the Invoice invoice to c...</text>
  <rect x="4620" y="440" width="100" height="80" rx="12" ry="12" fill="#f6fbff" stroke="#2b5876" stroke-width="2"/>
  <text x="4670" y="542" font-family="Segoe UI, Arial, sans-serif" font-size="12" text-anchor="middle" fill="#203040">Check for Payment</text>
  <polygon points="4905,540 4930,565 4905,590 4880,565" fill="#fff7e0" stroke="#8a6d1f" stroke-width="2"/>
  <text x="4905" y="612" font-family="Segoe UI, Arial, sans-serif" font-size="12" text-anchor="middle" fill="#203040">G3</text>
  <rect x="5100" y="660" width="100" height="80" rx="12" ry="12" fill="#f6fbff" stroke="#2b5876" stroke-width="2"/>
  <text x="5150" y="762" font-family="Segoe UI, Arial, sans-serif" font-size="12" text-anchor="middle" fill="#203040">Closing Order</text>
  <rect x="5100" y="500" width="100" height="80" rx="12" ry="12" fill="#f6fbff" stroke="#2b5876" stroke-width="2"/>
  <text x="5150" y="602" font-family="Segoe UI, Arial, sans-serif" font-size="12" text-anchor="middle" fill="#203040">Checking the reminders</text>
  <polygon points="5625,680 5650,705 5625,730 5600,705" fill="#fff7e0" stroke="#8a6d1f" stroke-width="2"/>
  <text x="5625" y="752" font-family="Segoe UI, Arial, sans-serif" font-size="12" text-anchor="middle" fill="#203040">G4</text>
  <rect x="5820" y="660" width="100" height="80" rx="12" ry="12" fill="#f6fbff" stroke="#2b5876" stroke-width="2"/>
  <text x="5870" y="762" font-family="Segoe UI, Arial, sans-serif" font-size="12" text-anchor="middle" fill="#203040">Dunning Process</text>
  <polygon points="5845,660 5870,685 5845,710 5820,685" fill="#fff7e0" stroke="#8a6d1f" stroke-width="2"/>
  <text x="5845" y="732" font-family="Segoe UI, Arial, sans-serif" font-size="12" text-anchor="middle" fill="#203040">XORCLOSE29</text>
  <polygon points="5405,640 5430,665 5405,690 5380,665" fill="#fff7e0" stroke="#8a6d1f" stroke-width="2"/>
  <text x="5405" y="712" font-family="Segoe UI, Arial, sans-serif" font-size="12" text-anchor="middle" fill="#203040">XORCLOSE30</text>
  <circle cx="5618" cy="638" r="18" fill="#ffffff" stroke="#203040" stroke-width="3"/>
  <text x="5618" y="678" font-family="Segoe UI, Arial, sans-serif" font-size="12" text-anchor="middle" fill="#203040">END_EVENT</text>
  <polygon points="5405,600 5430,625 5405,650 5380,625" fill="#fff7e0" stroke="#8a6d1f" stroke-width="2"/>
  <text x="5405" y="672" font-family="Segoe UI, Arial, sans-serif" font-size="12" text-anchor="middle" fill="#203040">XOR_JMPAA_Checking the reminders</text>
  <polygon points="4425,460 4450,485 4425,510 4400,485" fill="#fff7e0" stroke="#8a6d1f" stroke-width="2"/>
  <text x="4425" y="532" font-family="Segoe UI, Arial, sans-serif" font-size="12" text-anchor="middle" fill="#203040">XOR_JMPBB_Check for Payment</text>
</svg>
